<svg width="18" height="18" viewBox="0 0 18 18" fill="none" xmlns="http://www.w3.org/2000/svg">
<path d="M8.97933 17.6667V16.5833H15.9168C16.0835 16.5833 16.2363 16.5139 16.3752 16.375C16.5141 16.2361 16.5835 16.0833 16.5835 15.9167V2.08332C16.5835 1.91667 16.5141 1.76389 16.3752 1.62499C16.2363 1.48611 16.0835 1.41667 15.9168 1.41667H8.97933V0.333332H15.9168C16.4154 0.333332 16.8318 0.500346 17.1658 0.834374C17.4998 1.1684 17.6668 1.58472 17.6668 2.08332V15.9167C17.6668 16.4153 17.4998 16.8316 17.1658 17.1656C16.8318 17.4997 16.4154 17.6667 15.9168 17.6667H8.97933ZM8.20849 12.8333L7.44807 12.0542L9.96056 9.54167H0.333496V8.45833H9.96056L7.44807 5.94584L8.20849 5.16665L12.0418 9L8.20849 12.8333Z" fill="#9381FF"/>
</svg>
