<svg xmlns="http://www.w3.org/2000/svg" height="24" viewBox="0 -960 960 960" width="24"><path d="M482.308-160q-133.334 0-226.667-93.333Q162.307-346.667 162.307-480q0-121.539 79.231-210.77Q320.769-780 437.693-796.154q3.23 0 6.346.231 3.115.23 6.115.692-20.231 28.231-32.038 62.808-11.808 34.577-11.808 72.423 0 106.667 74.667 181.333Q555.641-404 662.308-404q38.077 0 72.538-11.808 34.462-11.808 61.923-32.039.462 3 .693 6.116.231 3.115.231 6.346-15.385 116.923-104.616 196.154T482.308-160Zm0-40q88 0 158-48.5t102-126.5q-20 5-40 8t-40 3q-123 0-209.5-86.5t-86.5-209.5q0-20 3-40t8-40q-78 32-126.5 102t-48.5 158q0 116 82 198t198 82Zm-10-270Z"/></svg>