<svg width="20" height="20" viewBox="0 0 20 20" fill="none" xmlns="http://www.w3.org/2000/svg">
<path d="M3.7125 15.9417C4.63333 15.2792 5.61041 14.7552 6.64375 14.3698C7.67709 13.9844 8.79584 13.7917 10 13.7917C11.2042 13.7917 12.3229 13.9844 13.3562 14.3698C14.3896 14.7552 15.3667 15.2792 16.2875 15.9417C17.0028 15.2014 17.5781 14.3271 18.0136 13.3187C18.449 12.3104 18.6667 11.2042 18.6667 10C18.6667 7.59861 17.8226 5.55382 16.1344 3.86563C14.4462 2.17743 12.4014 1.33333 10 1.33333C7.59861 1.33333 5.55382 2.17743 3.86563 3.86563C2.17743 5.55382 1.33333 7.59861 1.33333 10C1.33333 11.2042 1.55104 12.3104 1.98645 13.3187C2.42188 14.3271 2.99722 15.2014 3.7125 15.9417ZM10.0006 10.5417C9.0877 10.5417 8.3177 10.2283 7.69063 9.60169C7.06354 8.97501 6.75 8.20521 6.75 7.29229C6.75 6.37936 7.06333 5.60937 7.68998 4.9823C8.31665 4.35521 9.08645 4.04167 9.99938 4.04167C10.9123 4.04167 11.6823 4.355 12.3094 4.98168C12.9365 5.60833 13.25 6.37812 13.25 7.29104C13.25 8.20397 12.9367 8.97397 12.31 9.60104C11.6833 10.2281 10.9135 10.5417 10.0006 10.5417ZM10 19.75C8.64027 19.75 7.36736 19.4969 6.18125 18.9906C4.99514 18.4844 3.9632 17.7924 3.08541 16.9146C2.20764 16.0368 1.51562 15.0049 1.00936 13.8188C0.503121 12.6326 0.25 11.3597 0.25 10C0.25 8.64027 0.503121 7.36736 1.00936 6.18125C1.51562 4.99514 2.20764 3.9632 3.08541 3.08541C3.9632 2.20764 4.99514 1.51562 6.18125 1.00936C7.36736 0.503122 8.64027 0.25 10 0.25C11.3597 0.25 12.6326 0.503122 13.8188 1.00936C15.0049 1.51562 16.0368 2.20764 16.9146 3.08541C17.7924 3.9632 18.4844 4.99514 18.9906 6.18125C19.4969 7.36736 19.75 8.64027 19.75 10C19.75 11.3597 19.4969 12.6326 18.9906 13.8188C18.4844 15.0049 17.7924 16.0368 16.9146 16.9146C16.0368 17.7924 15.0049 18.4844 13.8188 18.9906C12.6326 19.4969 11.3597 19.75 10 19.75ZM10 18.6667C10.9986 18.6667 11.9813 18.492 12.9479 18.1427C13.9146 17.7934 14.75 17.3153 15.4542 16.7083C14.75 16.1431 13.9354 15.6962 13.0104 15.3677C12.0854 15.0392 11.0819 14.875 10 14.875C8.91806 14.875 7.91112 15.0358 6.97918 15.3573C6.04722 15.6788 5.2361 16.1292 4.54582 16.7083C5.24999 17.3153 6.08541 17.7934 7.05209 18.1427C8.01875 18.492 9.00138 18.6667 10 18.6667ZM10 9.45833C10.6083 9.45833 11.1215 9.2493 11.5396 8.83125C11.9576 8.41319 12.1667 7.89999 12.1667 7.29167C12.1667 6.68334 11.9576 6.17015 11.5396 5.75209C11.1215 5.33403 10.6083 5.125 10 5.125C9.39167 5.125 8.87848 5.33403 8.46042 5.75209C8.04236 6.17015 7.83333 6.68334 7.83333 7.29167C7.83333 7.89999 8.04236 8.41319 8.46042 8.83125C8.87848 9.2493 9.39167 9.45833 10 9.45833Z" fill="black"/>
</svg>
