<svg xmlns="http://www.w3.org/2000/svg" height="24" viewBox="0 -960 960 960" width="24"><path d="M480-360q50 0 85-35t35-85q0-50-35-85t-85-35q-50 0-85 35t-35 85q0 50 35 85t85 35Zm0 40q-66.846 0-113.423-46.577T320-480q0-66.846 46.577-113.423T480-640q66.846 0 113.423 46.577T640-480q0 66.846-46.577 113.423T480-320ZM200-460H60v-40h140v40Zm700 0H760v-40h140v40ZM460-760v-140h40v140h-40Zm0 700v-140h40v140h-40ZM269.846-663.846l-86.385-83.923 27.77-29.77 84.461 85.385-25.846 28.308Zm478.923 481.385-84.692-85.616 26.077-28.077 86.385 83.923-27.77 29.77Zm-84.923-507.693 83.923-86.385 29.77 27.77-85.385 84.461-28.308-25.846ZM182.461-211.231l85.616-84.692 26.538 26.077-83.153 87.154-29.001-28.539ZM480-480Z"/></svg>